<svg width="24" height="24" viewBox="0 0 24 24" fill="none" xmlns="http://www.w3.org/2000/svg">
<path d="M12.0623 17.2159C10.7899 17.2159 9.68778 16.974 8.75589 16.4901C7.84193 15.9883 7.13406 15.2805 6.63227 14.3665C6.13049 13.4346 5.86167 12.3235 5.82583 11.0332C5.80791 10.7644 5.79895 10.406 5.79895 9.95796C5.79895 9.50994 5.80791 9.15153 5.82583 8.88271C5.86167 7.59241 6.13049 6.49028 6.63227 5.57631C7.13406 4.64443 7.84193 3.93655 8.75589 3.45269C9.68778 2.9509 10.7899 2.70001 12.0623 2.70001C13.1017 2.70001 13.9888 2.84338 14.7235 3.13011C15.4762 3.41685 16.0945 3.78423 16.5784 4.23225C17.0622 4.68027 17.4206 5.16413 17.6536 5.68384C17.9045 6.20354 18.0389 6.69637 18.0568 7.16231C18.0747 7.34152 18.021 7.48489 17.8955 7.59241C17.7701 7.69994 17.6178 7.7537 17.4386 7.7537H16.1483C15.969 7.7537 15.8346 7.71786 15.745 7.64617C15.6554 7.55657 15.5658 7.4132 15.4762 7.21607C15.1536 6.33795 14.7146 5.71968 14.159 5.36126C13.6035 5.00284 12.9135 4.82364 12.0892 4.82364C11.0139 4.82364 10.1358 5.15517 9.45481 5.81824C8.79174 6.48132 8.43332 7.54761 8.37956 9.01712C8.36163 9.66227 8.36163 10.2895 8.37956 10.8988C8.43332 12.3862 8.79174 13.4615 9.45481 14.1246C10.1358 14.7697 11.0139 15.0923 12.0892 15.0923C12.9135 15.0923 13.6035 14.9131 14.159 14.5547C14.7146 14.1963 15.1536 13.578 15.4762 12.6999C15.5658 12.5027 15.6554 12.3683 15.745 12.2966C15.8346 12.207 15.969 12.1622 16.1483 12.1622H17.4386C17.6178 12.1622 17.7701 12.216 17.8955 12.3235C18.021 12.431 18.0747 12.5744 18.0568 12.7536C18.0389 13.13 17.9583 13.5153 17.8149 13.9095C17.6715 14.3038 17.4386 14.707 17.116 15.1192C16.8113 15.5134 16.426 15.8719 15.9601 16.1944C15.4941 16.4991 14.9296 16.75 14.2666 16.9471C13.6214 17.1263 12.8867 17.2159 12.0623 17.2159Z" fill="#252525"/>
<path d="M5.79895 20.1212C5.79895 19.6358 6.19241 19.2424 6.67776 19.2424H17.1821C17.6675 19.2424 18.061 19.6358 18.061 20.1212C18.061 20.6065 17.6675 21 17.1821 21H6.67776C6.19241 21 5.79895 20.6065 5.79895 20.1212Z" fill="#252525"/>
</svg>
