<svg width="25" height="24" viewBox="0 0 25 24" fill="none" xmlns="http://www.w3.org/2000/svg">
<path d="M22.5 22.75H2.5C2.09 22.75 1.75 22.41 1.75 22C1.75 21.59 2.09 21.25 2.5 21.25H22.5C22.91 21.25 23.25 21.59 23.25 22C23.25 22.41 22.91 22.75 22.5 22.75Z" fill="#252525"/>
<path d="M4.2002 22H2.7002L2.7502 9.96996C2.7502 9.11996 3.1402 8.32998 3.8102 7.80998L10.8102 2.35997C11.8002 1.58997 13.1902 1.58997 14.1902 2.35997L21.1902 7.79997C21.8502 8.31997 22.2502 9.12996 22.2502 9.96996V22H20.7502V9.97997C20.7502 9.59997 20.5702 9.22998 20.2702 8.98998L13.2702 3.54997C12.8202 3.19997 12.1902 3.19997 11.7302 3.54997L4.7302 8.99999C4.4302 9.22999 4.2502 9.59997 4.2502 9.97997L4.2002 22Z" fill="#252525"/>
<path d="M17.5 22.75H7.5C7.09 22.75 6.75 22.41 6.75 22V12.5C6.75 11.26 7.76 10.25 9 10.25H16C17.24 10.25 18.25 11.26 18.25 12.5V22C18.25 22.41 17.91 22.75 17.5 22.75ZM8.25 21.25H16.75V12.5C16.75 12.09 16.41 11.75 16 11.75H9C8.59 11.75 8.25 12.09 8.25 12.5V21.25Z" fill="#252525"/>
<path d="M10.5 18.5C10.09 18.5 9.75 18.16 9.75 17.75V16.25C9.75 15.84 10.09 15.5 10.5 15.5C10.91 15.5 11.25 15.84 11.25 16.25V17.75C11.25 18.16 10.91 18.5 10.5 18.5Z" fill="#252525"/>
<path d="M14 8.25H11C10.59 8.25 10.25 7.91 10.25 7.5C10.25 7.09 10.59 6.75 11 6.75H14C14.41 6.75 14.75 7.09 14.75 7.5C14.75 7.91 14.41 8.25 14 8.25Z" fill="#252525"/>
</svg>
