<svg width="25" height="24" viewBox="0 0 25 24" fill="none" xmlns="http://www.w3.org/2000/svg">
<path d="M6.68001 22.75C6.58001 22.75 6.47002 22.74 6.38001 22.73L4.21001 22.43C3.17001 22.29 2.23001 21.36 2.07001 20.3L1.77001 18.11C1.67001 17.41 1.97001 16.5 2.47001 15.99L6.86001 11.6C6.15001 8.75998 6.97002 5.75998 9.06002 3.68998C12.3 0.459984 17.57 0.449984 20.82 3.68998C22.39 5.25998 23.25 7.34998 23.25 9.56998C23.25 11.79 22.39 13.88 20.82 15.45C18.72 17.53 15.73 18.35 12.91 17.63L8.51002 22.02C8.09001 22.46 7.34001 22.75 6.68001 22.75ZM14.93 2.75998C13.18 2.75998 11.44 3.41998 10.11 4.74998C8.31001 6.53998 7.66001 9.15999 8.41001 11.6C8.49001 11.87 8.42001 12.15 8.22001 12.35L3.52001 17.05C3.35001 17.22 3.21001 17.66 3.24001 17.89L3.54001 20.08C3.60001 20.46 4.01002 20.89 4.39001 20.94L6.57001 21.24C6.81001 21.28 7.25001 21.14 7.42001 20.97L12.14 16.26C12.34 16.06 12.63 16 12.89 16.08C15.3 16.84 17.93 16.19 19.73 14.39C21.01 13.11 21.72 11.39 21.72 9.56998C21.72 7.73998 21.01 6.02998 19.73 4.74998C18.43 3.42998 16.68 2.75998 14.93 2.75998Z" fill="#252525"/>
<path d="M9.69002 20.54C9.50002 20.54 9.31002 20.47 9.16002 20.32L6.86002 18.02C6.57002 17.73 6.57002 17.25 6.86002 16.96C7.15002 16.67 7.63002 16.67 7.92002 16.96L10.22 19.26C10.51 19.55 10.51 20.03 10.22 20.32C10.07 20.47 9.88002 20.54 9.69002 20.54Z" fill="#252525"/>
<path d="M15 11.75C13.76 11.75 12.75 10.74 12.75 9.5C12.75 8.26 13.76 7.25 15 7.25C16.24 7.25 17.25 8.26 17.25 9.5C17.25 10.74 16.24 11.75 15 11.75ZM15 8.75C14.59 8.75 14.25 9.09 14.25 9.5C14.25 9.91 14.59 10.25 15 10.25C15.41 10.25 15.75 9.91 15.75 9.5C15.75 9.09 15.41 8.75 15 8.75Z" fill="#252525"/>
</svg>
