<svg width="29" height="29" viewBox="0 0 29 29" fill="none" xmlns="http://www.w3.org/2000/svg">
<path d="M29 14.2999C29 6.40142 22.5985 -6.10352e-05 14.7 -6.10352e-05C6.80148 -6.10352e-05 0.399994 6.40142 0.399994 14.2999C0.399994 22.1985 6.80148 28.5999 14.7 28.5999C14.7838 28.5999 14.8676 28.5999 14.9514 28.5943V17.4672H11.8791V13.8866H14.9514V11.25C14.9514 8.19451 16.8171 6.5299 19.543 6.5299C20.8501 6.5299 21.9729 6.62486 22.2969 6.66955V9.8647H20.42C18.9397 9.8647 18.6493 10.5685 18.6493 11.6019V13.881H22.1963L21.7327 17.4616H18.6493V28.0469C24.6262 26.332 29 20.8299 29 14.2999Z" fill="white"/>
</svg>
