<svg width="29" height="29" viewBox="0 0 29 29" fill="none" xmlns="http://www.w3.org/2000/svg">
<path d="M17.0371 14.3C17.0371 15.8117 15.8117 17.0371 14.3 17.0371C12.7883 17.0371 11.5629 15.8116 11.5629 14.3C11.5629 12.7883 12.7883 11.5629 14.3 11.5629C15.8117 11.5629 17.0371 12.7883 17.0371 14.3Z" fill="white"/>
<path d="M20.7011 9.45724C20.5695 9.10057 20.3596 8.77793 20.0869 8.51305C19.8221 8.24028 19.4994 8.03039 19.1427 7.89882C18.8534 7.78649 18.4188 7.6527 17.6182 7.61628C16.7521 7.57679 16.4925 7.56824 14.3 7.56824C12.1073 7.56824 11.8477 7.57657 10.9818 7.61606C10.1813 7.6527 9.74634 7.78643 9.45727 7.89882C9.10054 8.03034 8.77789 8.24024 8.51308 8.51305C8.24032 8.77794 8.03036 9.10057 7.89863 9.45724C7.78629 9.74659 7.65251 10.1815 7.61609 10.982C7.5766 11.8479 7.56805 12.1075 7.56805 14.3002C7.56805 16.4927 7.5766 16.7523 7.61609 17.6183C7.65251 18.4189 7.78629 18.8536 7.89863 19.1429C8.03028 19.4996 8.24016 19.8222 8.51286 20.0871C8.7777 20.3599 9.10035 20.5698 9.45705 20.7013C9.7464 20.8139 10.1813 20.9477 10.9818 20.9841C11.8477 21.0236 12.1071 21.0319 14.2998 21.0319C16.4927 21.0319 16.7523 21.0236 17.6179 20.9841C18.4185 20.9477 18.8534 20.8139 19.1427 20.7013C19.4969 20.5647 19.8185 20.3555 20.0869 20.0871C20.3553 19.8187 20.5645 19.4971 20.7011 19.1429C20.8135 18.8536 20.9473 18.419 20.9839 17.6183C21.0234 16.7523 21.0317 16.4927 21.0317 14.3002C21.0317 12.1075 21.0234 11.8479 20.9839 10.982C20.9475 10.1815 20.8137 9.74653 20.7011 9.45724ZM14.3 18.5165C11.9712 18.5165 10.0833 16.6288 10.0833 14.3C10.0833 11.9711 11.9712 10.0835 14.3 10.0835C16.6287 10.0835 18.5165 11.9711 18.5165 14.3C18.5165 16.6288 16.6287 18.5165 14.3 18.5165ZM18.6832 10.9022C18.139 10.9022 17.6979 10.4609 17.6979 9.91679C17.6979 9.37267 18.139 8.93138 18.6832 8.93138C19.2274 8.93138 19.6686 9.37256 19.6686 9.91674C19.6684 10.4609 19.2274 10.9022 18.6832 10.9022Z" fill="white"/>
<path d="M14.3 -3.05176e-05C6.40355 -3.05176e-05 0 6.40352 0 14.3C0 22.1964 6.40355 28.6 14.3 28.6C22.1964 28.6 28.6 22.1964 28.6 14.3C28.6 6.40352 22.1964 -3.05176e-05 14.3 -3.05176e-05ZM22.4618 17.6853C22.4221 18.5595 22.2831 19.1563 22.0801 19.6786C21.8692 20.2241 21.5466 20.7195 21.133 21.133C20.7195 21.5466 20.2241 21.8692 19.6786 22.0801C19.1565 22.2831 18.5595 22.4218 17.6856 22.4617C16.81 22.5017 16.5302 22.5113 14.3002 22.5113C12.07 22.5113 11.7905 22.5017 10.9146 22.4617C10.0407 22.4218 9.44375 22.2831 8.92152 22.0801C8.37355 21.874 7.87718 21.5507 7.46706 21.1329C7.04938 20.7228 6.72621 20.2265 6.52007 19.6786C6.31714 19.1564 6.17816 18.5595 6.13844 17.6855C6.09805 16.8097 6.08867 16.53 6.08867 14.3C6.08867 12.0699 6.09806 11.7902 6.13822 10.9146C6.17788 10.0405 6.31669 9.44372 6.51963 8.92132C6.72583 8.37339 7.04914 7.87708 7.467 7.46703C7.87707 7.04921 8.37341 6.72595 8.92136 6.51982C9.44375 6.31688 10.0405 6.17813 10.9146 6.13819C11.7902 6.09825 12.07 6.08864 14.3 6.08864C16.53 6.08864 16.8098 6.09825 17.6854 6.13836C18.5595 6.17813 19.1562 6.31688 19.6786 6.5196C20.2266 6.72584 20.723 7.04915 21.1332 7.46697C21.5509 7.8771 21.8741 8.37343 22.0801 8.92132C22.2833 9.44372 22.4221 10.0405 22.462 10.9146C22.5019 11.7902 22.5113 12.0699 22.5113 14.3C22.5113 16.53 22.5019 16.8097 22.4618 17.6853Z" fill="white"/>
</svg>
