<svg width="29" height="29" viewBox="0 0 29 29" fill="none" xmlns="http://www.w3.org/2000/svg">
<path d="M14.5 -6.10352e-05C6.60356 -6.10352e-05 0.200012 6.40349 0.200012 14.2999C0.200012 22.1964 6.60356 28.5999 14.5 28.5999C22.3965 28.5999 28.8 22.1964 28.8 14.2999C28.8 6.40349 22.3965 -6.10352e-05 14.5 -6.10352e-05ZM14.8031 22.6258C14.8029 22.6258 14.8033 22.6258 14.8031 22.6258H14.7996C13.3671 22.6252 11.9595 22.266 10.7094 21.5843L6.17238 22.7742L7.38666 18.3404C6.63758 17.0429 6.24349 15.571 6.24416 14.063C6.24612 9.34549 10.0856 5.50756 14.8031 5.50756C17.0924 5.5084 19.2415 6.39952 20.8573 8.01665C22.4733 9.63395 23.3627 11.7836 23.3618 14.0697C23.3598 18.7875 19.5199 22.6258 14.803 22.6258L14.8031 22.6258Z" fill="white"/>
<path d="M14.806 6.9527C10.882 6.9527 7.69087 10.1425 7.68908 14.0636C7.68869 15.4073 8.06484 16.7159 8.77683 17.8481L8.94591 18.1171L8.22717 20.7414L10.9196 20.0354L11.1795 20.1894C12.2715 20.8374 13.5236 21.1802 14.8 21.1807H14.8028C18.7237 21.1807 21.9149 17.9906 21.9166 14.0693C21.9173 12.169 21.1781 10.3824 19.835 9.03826C18.492 7.69412 16.7058 6.95331 14.806 6.9527ZM18.9902 17.1211C18.8119 17.6203 17.9576 18.0761 17.5467 18.1377C17.1782 18.1926 16.7122 18.2156 16.1998 18.053C15.8891 17.9544 15.4908 17.8228 14.9805 17.6026C12.8353 16.6766 11.4343 14.5173 11.3274 14.3745C11.2205 14.2318 10.4541 13.2153 10.4541 12.1629C10.4541 11.1107 11.0066 10.5934 11.2026 10.3795C11.3987 10.1655 11.6305 10.112 11.7729 10.112C11.9154 10.112 12.0581 10.1133 12.1827 10.1194C12.3141 10.126 12.4904 10.0695 12.6639 10.4864C12.8421 10.9146 13.2698 11.9667 13.3233 12.0737C13.3767 12.1807 13.4123 12.3056 13.3412 12.4483C13.2698 12.591 13.0328 12.8989 12.8066 13.1795C12.7116 13.2971 12.5879 13.4018 12.7127 13.6159C12.8373 13.8297 13.2667 14.5299 13.9024 15.0968C14.7193 15.8252 15.4083 16.0508 15.6222 16.1579C15.8358 16.2648 15.9606 16.2469 16.0855 16.1045C16.21 15.9618 16.62 15.4802 16.7625 15.2661C16.905 15.0521 17.0477 15.0878 17.2437 15.1592C17.4398 15.2303 18.4911 15.7477 18.7049 15.8546C18.9188 15.9618 19.0613 16.0152 19.1147 16.1045C19.1684 16.1937 19.1684 16.6216 18.9902 17.1211Z" fill="white"/>
</svg>
