<svg width="52" height="45" viewBox="0 0 52 45" fill="none" xmlns="http://www.w3.org/2000/svg">
<path d="M23.6789 15.3125L26.8399 9.83754L42.8141 37.5056H10.8657L13.9524 32.1594C11.3906 32.5089 8.69988 32.0564 6.27792 30.6956L2.34617 37.5056C0.452931 40.7848 2.81949 44.8838 6.60596 44.8838H47.0739C50.8604 44.8838 53.2269 40.7848 51.3337 37.5056L31.0997 2.45938C29.2065 -0.8198 24.4734 -0.819792 22.5801 2.45939L18.574 9.39818C20.9635 10.8152 22.7007 12.9193 23.6789 15.3125Z" fill="#1C2835"/>
<path fill-rule="evenodd" clip-rule="evenodd" d="M22.9485 26.122C26.3442 20.2405 24.329 12.7198 18.4475 9.32409C12.5659 5.92839 5.04523 7.94355 1.64953 13.8251C-1.74617 19.7066 0.268988 27.2273 6.15052 30.623C6.19291 30.6475 6.23538 30.6717 6.27794 30.6956L18.574 9.39817C20.9635 10.8152 22.7007 12.9193 23.6789 15.3125L13.9524 32.1594C17.5913 31.6631 20.97 29.5488 22.9485 26.122Z" fill="#90EBFF"/>
</svg>
